<svg xmlns="http://www.w3.org/2000/svg" width="1600" height="900" viewBox="0 0 1600 900">
  <defs>
    <linearGradient id="g" x1="0" y1="0" x2="1" y2="1">
      <stop offset="0" stop-color="#7c3aed"/>
      <stop offset="0.55" stop-color="#06b6d4"/>
      <stop offset="1" stop-color="#22c55e"/>
    </linearGradient>
    <filter id="b" x="-20%" y="-20%" width="140%" height="140%">
      <feGaussianBlur stdDeviation="30"/>
    </filter>
  </defs>
  <rect width="1600" height="900" fill="#0b0d12"/>
  <circle cx="420" cy="300" r="220" fill="url(#g)" opacity="0.35" filter="url(#b)"/>
  <circle cx="1150" cy="520" r="260" fill="url(#g)" opacity="0.25" filter="url(#b)"/>
  <rect x="220" y="210" width="1160" height="520" rx="34" fill="rgba(255,255,255,0.07)" stroke="rgba(255,255,255,0.18)"/>
  <rect x="280" y="270" width="420" height="54" rx="16" fill="rgba(255,255,255,0.10)"/>
  <rect x="280" y="350" width="680" height="18" rx="9" fill="rgba(255,255,255,0.10)"/>
  <rect x="280" y="386" width="610" height="18" rx="9" fill="rgba(255,255,255,0.08)"/>
  <rect x="280" y="448" width="220" height="46" rx="18" fill="rgba(255,255,255,0.12)"/>
  <rect x="520" y="448" width="220" height="46" rx="18" fill="rgba(255,255,255,0.08)"/>
  <rect x="1010" y="310" width="310" height="280" rx="26" fill="rgba(255,255,255,0.08)" stroke="rgba(255,255,255,0.16)"/>
  <rect x="1060" y="360" width="210" height="16" rx="8" fill="rgba(255,255,255,0.12)"/>
  <rect x="1060" y="392" width="180" height="16" rx="8" fill="rgba(255,255,255,0.10)"/>
  <rect x="1060" y="450" width="150" height="96" rx="20" fill="rgba(255,255,255,0.10)"/>
  <text x="280" y="665" fill="rgba(255,255,255,0.65)" font-family="ui-sans-serif, system-ui" font-size="18">Modme.uz Landing  Placeholder</text>
</svg>

